<svg width="78" height="70" viewBox="0 0 78 70" fill="none" xmlns="http://www.w3.org/2000/svg">
    <g clip-path="url(#clip0_1_2391)">
    <g clip-path="url(#clip1_1_2391)">
    <g clip-path="url(#clip2_1_2391)">
    <path d="M15.2746 8.386L15.2835 27.7498C15.2866 32.3528 19.0545 36.1208 23.6605 36.1178L35.5781 36.1148C44.2784 36.1118 51.3954 28.9888 51.3924 20.2886L51.3863 8.37103C51.3863 3.76502 47.6153 0 43.0092 0L23.6484 0.00890622C19.0394 0.0119468 15.2746 3.77999 15.2746 8.386ZM40.5371 10.855L40.5402 19.4894C40.5402 22.6768 37.9574 25.2627 34.77 25.2627L26.1356 25.2657L26.1295 10.861L40.5371 10.855Z" fill="#FFA300"/>
    <path d="M62.0889 30.3536C62.0889 32.6491 60.2274 34.5107 57.9319 34.5107C55.6363 34.5137 53.7748 32.6521 53.7718 30.3566C53.7718 28.0581 55.6333 26.1965 57.9289 26.1965C60.2244 26.1935 62.0889 28.0551 62.0889 30.3536Z" fill="#0C0B0B"/>
    <path d="M11.3779 64.8613C9.51338 65.3491 7.69073 65.5945 5.91297 65.5945C1.97438 65.5976 0.00207879 63.4845 0.00207879 59.2616C-0.000961769 55.3619 1.92649 53.4106 5.7783 53.4076C6.59834 53.4076 7.43934 53.6021 8.29828 53.9882V48.9961H11.3719L11.3779 64.8613ZM8.30128 56.589C7.6638 56.17 6.8677 55.9605 5.90699 55.9605C3.99755 55.9635 3.04283 57.0349 3.04283 59.1778C3.04587 61.7247 4.03944 62.9967 6.0267 62.9967C6.83178 62.9967 7.58898 62.883 8.30128 62.6585V56.589Z" fill="#0C0B0B"/>
    <path d="M17.3517 51.4323H14.275V48.9931H17.3487L17.3517 51.4323ZM17.3547 65.5915H14.281L14.275 53.4046H17.3517L17.3547 65.5915Z" fill="#0C0B0B"/>
    <path d="M31.1338 64.6577C31.1338 68.2163 28.9939 69.997 24.7171 70C23.2147 70 21.8829 69.8055 20.7246 69.4194L20.7216 66.9832C21.9067 67.3693 23.2446 67.5638 24.738 67.5608C26.9527 67.5608 28.0571 66.63 28.0571 64.7745C27.1443 65.1605 26.1626 65.3551 25.1091 65.3551C21.4877 65.3581 19.6771 63.3798 19.6741 59.4262C19.6741 55.4128 21.781 53.4016 25.998 53.4016C27.4136 53.4016 29.1255 53.5662 31.1277 53.8984L31.1338 64.6577ZM28.0541 56.164C27.5513 55.9755 26.836 55.8857 25.9053 55.8857C23.7773 55.8857 22.7149 57.0589 22.7179 59.4023C22.7179 61.6709 23.6337 62.8052 25.4683 62.8022C26.3512 62.8022 27.2131 62.5927 28.0571 62.1737L28.0541 56.164Z" fill="#0C0B0B"/>
    <path d="M37.1045 51.4233H34.0309L34.0278 48.9871H37.1045L37.1045 51.4233ZM37.1107 65.5825L34.034 65.5856L34.031 53.3987L37.1046 53.3957L37.1107 65.5825Z" fill="#0C0B0B"/>
    <path d="M40.0136 65.5825L40.0075 53.3956C40.0075 50.0526 41.8331 48.3796 45.4844 48.3796C46.481 48.3796 47.3879 48.5322 48.1989 48.8435V51.2797C47.4358 50.9714 46.6007 50.8158 45.7059 50.8158C43.9551 50.8188 43.0811 51.6777 43.0841 53.3926H46.7384L46.7415 55.8288L43.0842 55.8318L43.0873 65.5795L40.0136 65.5825Z" fill="#0C0B0B"/>
    <path d="M47.2174 61.7846C47.2174 59.3634 48.9802 58.1513 52.5088 58.1483C53.3378 58.1483 54.1669 58.2261 54.9929 58.3787V57.4629C54.9929 56.3735 54.2088 55.8258 52.6375 55.8288C51.3057 55.8288 49.8272 56.0233 48.2021 56.4094V53.9732C49.8272 53.5842 51.3057 53.3896 52.6375 53.3896C56.2559 53.3896 58.0695 54.7274 58.0695 57.403L58.0726 65.5735L56.2859 65.5766L55.1935 64.4842C54.134 65.2115 52.9668 65.5766 51.6888 65.5766C48.7109 65.5797 47.2204 64.3136 47.2174 61.7846ZM52.5119 60.2373C51.0334 60.2373 50.2942 60.7431 50.2942 61.7487C50.2972 62.8322 50.9137 63.3739 52.1527 63.3709C53.1733 63.3709 54.122 63.0536 54.9959 62.4191V60.4678C54.2208 60.3152 53.3948 60.2373 52.5119 60.2373Z" fill="#0C0B0B"/>
    <path d="M69.9692 65.2234C68.9636 65.4538 67.919 65.5706 66.8356 65.5706C62.502 65.5736 60.3351 63.4666 60.3322 59.2496C60.3322 55.341 62.499 53.3866 66.8296 53.3836C67.9131 53.3836 68.9576 53.5004 69.9662 53.7308V56.17C68.9606 55.9365 67.9939 55.8228 67.0631 55.8228C64.6269 55.8228 63.4088 56.9631 63.4088 59.2466C63.4088 61.8385 64.6299 63.1344 67.0661 63.1344C67.9969 63.1344 68.9606 63.0177 69.9692 62.7842V65.2234Z" fill="#0C0B0B"/>
    <path d="M71.8217 51.4084H74.0963L74.5602 53.3806H77.6249V55.8168L74.8984 55.8198L74.9014 61.4255C74.9014 62.5627 75.3923 63.1314 76.3739 63.1314L77.6279 63.1283V65.5675H74.8895C72.8483 65.5706 71.8248 64.4751 71.8248 62.2843L71.8217 51.4084Z" fill="#0C0B0B"/>
    </g>
    </g>
    </g>
    <defs>
    <clipPath id="clip0_1_2391">
    <rect width="77.63" height="70" fill="white"/>
    </clipPath>
    <clipPath id="clip1_1_2391">
    <rect width="77.63" height="70" fill="white"/>
    </clipPath>
    <clipPath id="clip2_1_2391">
    <rect width="77.6259" height="70" fill="white" transform="translate(0.0020752)"/>
    </clipPath>
    </defs>
    </svg>
    