<svg width="178" height="13" viewBox="0 0 178 13" fill="none" xmlns="http://www.w3.org/2000/svg">
<path d="M6.40631 12.16C5.17965 12.1707 4.12365 11.952 3.23831 11.504C2.35298 11.056 1.67565 10.4107 1.20631 9.568C0.736979 8.72533 0.502313 7.712 0.502313 6.528C0.502313 5.312 0.758313 4.25067 1.27031 3.344C1.78231 2.43733 2.49698 1.73333 3.41431 1.232C4.33165 0.730666 5.40365 0.48 6.63031 0.48C7.75031 0.48 8.72631 0.714666 9.55831 1.184C10.401 1.65333 11.0516 2.30933 11.5103 3.152C11.9796 3.984 12.2143 4.96533 12.2143 6.096C12.2143 7.29067 11.969 8.34133 11.4783 9.248C10.9983 10.1547 10.321 10.864 9.44631 11.376C8.57165 11.888 7.55831 12.1493 6.40631 12.16ZM6.32631 9.36C7.14765 9.36 7.79831 9.072 8.27831 8.496C8.75831 7.90933 8.99831 7.13067 8.99831 6.16C8.99831 5.28533 8.76898 4.58667 8.31031 4.064C7.86231 3.54133 7.25965 3.28 6.50231 3.28C5.94765 3.28 5.46231 3.41867 5.04631 3.696C4.63031 3.96267 4.30498 4.336 4.07031 4.816C3.84631 5.28533 3.73431 5.82933 3.73431 6.448C3.73431 7.36533 3.96365 8.08 4.42231 8.592C4.88098 9.104 5.51565 9.36 6.32631 9.36ZM22.5302 0.639999L22.0662 3.424H18.7382V12H15.5382V3.424H11.9862V0.639999H22.5302ZM32.9994 9.056L33.7354 11.52C33.4794 11.7227 33.1381 11.8827 32.7114 12C32.2848 12.128 31.8528 12.192 31.4154 12.192C30.5728 12.192 29.8741 12.0373 29.3194 11.728C28.7648 11.4187 28.3168 10.9813 27.9754 10.416L26.9194 8.64C26.7914 8.42667 26.6688 8.26667 26.5514 8.16C26.4341 8.05333 26.2901 7.984 26.1194 7.952V12H22.9834V0.639999H26.8234C28.5728 0.639999 29.8634 0.970666 30.6954 1.632C31.5381 2.29333 31.9594 3.21067 31.9594 4.384C31.9594 5.216 31.7194 5.90933 31.2394 6.464C30.7594 7.008 30.1248 7.392 29.3354 7.616C29.7408 7.744 30.0608 7.984 30.2954 8.336L30.5834 8.768C30.8501 9.184 31.2608 9.392 31.8154 9.392C32.0181 9.392 32.2154 9.37067 32.4074 9.328C32.6101 9.27467 32.8074 9.184 32.9994 9.056ZM26.7914 3.216H26.1194V5.472H26.9354C27.6288 5.472 28.1088 5.38133 28.3754 5.2C28.6528 5.008 28.7914 4.71467 28.7914 4.32C28.7914 3.89333 28.6048 3.60533 28.2314 3.456C27.8688 3.296 27.3888 3.216 26.7914 3.216ZM39.0938 12.16C37.8671 12.1707 36.8111 11.952 35.9258 11.504C35.0405 11.056 34.3631 10.4107 33.8938 9.568C33.4245 8.72533 33.1898 7.712 33.1898 6.528C33.1898 5.312 33.4458 4.25067 33.9578 3.344C34.4698 2.43733 35.1845 1.73333 36.1018 1.232C37.0191 0.730666 38.0911 0.48 39.3178 0.48C40.4378 0.48 41.4138 0.714666 42.2458 1.184C43.0885 1.65333 43.7391 2.30933 44.1978 3.152C44.6671 3.984 44.9018 4.96533 44.9018 6.096C44.9018 7.29067 44.6565 8.34133 44.1658 9.248C43.6858 10.1547 43.0085 10.864 42.1338 11.376C41.2591 11.888 40.2458 12.1493 39.0938 12.16ZM39.0138 9.36C39.8351 9.36 40.4858 9.072 40.9658 8.496C41.4458 7.90933 41.6858 7.13067 41.6858 6.16C41.6858 5.28533 41.4565 4.58667 40.9978 4.064C40.5498 3.54133 39.9471 3.28 39.1898 3.28C38.6351 3.28 38.1498 3.41867 37.7338 3.696C37.3178 3.96267 36.9925 4.336 36.7578 4.816C36.5338 5.28533 36.4218 5.82933 36.4218 6.448C36.4218 7.36533 36.6511 8.08 37.1098 8.592C37.5685 9.104 38.2031 9.36 39.0138 9.36ZM49.9637 12.16C48.5344 12.16 47.4197 11.856 46.6197 11.248C45.8197 10.64 45.3664 9.75467 45.2597 8.592L48.2197 8.16C48.241 8.56533 48.417 8.896 48.7477 9.152C49.089 9.39733 49.5264 9.52 50.0597 9.52C51.041 9.52 51.5317 9.264 51.5317 8.752C51.5317 8.51733 51.393 8.33067 51.1157 8.192C50.849 8.04267 50.4064 7.89333 49.7877 7.744C48.465 7.424 47.4944 6.99733 46.8757 6.464C46.257 5.93067 45.953 5.17867 45.9637 4.208C45.9744 3.472 46.1664 2.82667 46.5397 2.272C46.9237 1.70667 47.457 1.26933 48.1397 0.959999C48.833 0.639999 49.6437 0.48 50.5717 0.48C51.713 0.48 52.6517 0.768 53.3877 1.344C54.1344 1.92 54.561 2.704 54.6677 3.696L51.8677 4.176C51.8144 3.86667 51.649 3.616 51.3717 3.424C51.105 3.22133 50.7797 3.12 50.3957 3.12C50.033 3.12 49.7397 3.19467 49.5157 3.344C49.3024 3.48267 49.1957 3.67467 49.1957 3.92C49.1957 4.144 49.3024 4.34133 49.5157 4.512C49.7397 4.672 50.1557 4.82667 50.7637 4.976C51.6384 5.18933 52.369 5.43467 52.9557 5.712C53.553 5.97867 54.001 6.32533 54.2997 6.752C54.609 7.17867 54.7637 7.73867 54.7637 8.432C54.7637 9.168 54.561 9.81867 54.1557 10.384C53.761 10.9387 53.201 11.376 52.4757 11.696C51.761 12.0053 50.9237 12.16 49.9637 12.16ZM63.2757 12H60.1397V0.639999H64.4437C66.2037 0.639999 67.4997 0.959999 68.3317 1.6C69.1744 2.22933 69.5957 3.152 69.5957 4.368C69.5957 5.17867 69.377 5.87733 68.9397 6.464C68.5024 7.05067 67.8837 7.504 67.0837 7.824C66.2837 8.13333 65.329 8.288 64.2197 8.288H63.2757V12ZM64.5397 3.216H63.2757V5.696H64.3797C65.041 5.696 65.5424 5.59467 65.8837 5.392C66.2357 5.18933 66.4117 4.85867 66.4117 4.4C66.4117 3.99467 66.2624 3.696 65.9637 3.504C65.665 3.312 65.1904 3.216 64.5397 3.216ZM80.6713 9.056L81.4073 11.52C81.1513 11.7227 80.81 11.8827 80.3833 12C79.9566 12.128 79.5246 12.192 79.0873 12.192C78.2446 12.192 77.546 12.0373 76.9913 11.728C76.4366 11.4187 75.9886 10.9813 75.6473 10.416L74.5913 8.64C74.4633 8.42667 74.3406 8.26667 74.2233 8.16C74.106 8.05333 73.962 7.984 73.7913 7.952V12H70.6553V0.639999H74.4953C76.2446 0.639999 77.5353 0.970666 78.3673 1.632C79.21 2.29333 79.6313 3.21067 79.6313 4.384C79.6313 5.216 79.3913 5.90933 78.9113 6.464C78.4313 7.008 77.7966 7.392 77.0073 7.616C77.4126 7.744 77.7326 7.984 77.9673 8.336L78.2553 8.768C78.522 9.184 78.9326 9.392 79.4873 9.392C79.69 9.392 79.8873 9.37067 80.0793 9.328C80.282 9.27467 80.4793 9.184 80.6713 9.056ZM74.4633 3.216H73.7913V5.472H74.6073C75.3006 5.472 75.7806 5.38133 76.0473 5.2C76.3246 5.008 76.4633 4.71467 76.4633 4.32C76.4633 3.89333 76.2766 3.60533 75.9033 3.456C75.5406 3.296 75.0606 3.216 74.4633 3.216ZM86.7657 12.16C85.539 12.1707 84.483 11.952 83.5977 11.504C82.7124 11.056 82.035 10.4107 81.5657 9.568C81.0964 8.72533 80.8617 7.712 80.8617 6.528C80.8617 5.312 81.1177 4.25067 81.6297 3.344C82.1417 2.43733 82.8564 1.73333 83.7737 1.232C84.691 0.730666 85.763 0.48 86.9897 0.48C88.1097 0.48 89.0857 0.714666 89.9177 1.184C90.7604 1.65333 91.411 2.30933 91.8697 3.152C92.339 3.984 92.5737 4.96533 92.5737 6.096C92.5737 7.29067 92.3284 8.34133 91.8377 9.248C91.3577 10.1547 90.6804 10.864 89.8057 11.376C88.931 11.888 87.9177 12.1493 86.7657 12.16ZM86.6857 9.36C87.507 9.36 88.1577 9.072 88.6377 8.496C89.1177 7.90933 89.3577 7.13067 89.3577 6.16C89.3577 5.28533 89.1284 4.58667 88.6697 4.064C88.2217 3.54133 87.619 3.28 86.8617 3.28C86.307 3.28 85.8217 3.41867 85.4057 3.696C84.9897 3.96267 84.6644 4.336 84.4297 4.816C84.2057 5.28533 84.0937 5.82933 84.0937 6.448C84.0937 7.36533 84.323 8.08 84.7817 8.592C85.2404 9.104 85.875 9.36 86.6857 9.36ZM101.047 0.639999H104.247L100.295 12H95.7673L92.4553 0.639999H95.8473L98.1993 9.12L101.047 0.639999ZM112.881 3.376H107.745V4.928H112.465V7.664H107.745V9.264H113.009L112.817 12H104.593V0.639999H112.881V3.376ZM122.396 3.376H117.26V4.928H121.98V7.664H117.26V9.264H122.524L122.332 12H114.108V0.639999H122.396V3.376ZM123.624 12V0.639999H127.624C129.896 0.639999 131.608 1.12 132.76 2.08C133.923 3.02933 134.504 4.43733 134.504 6.304C134.504 7.12533 134.355 7.88267 134.056 8.576C133.757 9.26933 133.336 9.872 132.792 10.384C132.248 10.896 131.603 11.296 130.856 11.584C130.12 11.8613 129.315 12 128.44 12H123.624ZM126.824 9.184H128.216C129.229 9.184 129.992 8.944 130.504 8.464C131.027 7.984 131.288 7.29067 131.288 6.384C131.288 5.37067 131.016 4.62933 130.472 4.16C129.928 3.69067 129.08 3.456 127.928 3.456H126.824V9.184ZM141.266 12.16C140.039 12.1707 138.983 11.952 138.098 11.504C137.212 11.056 136.535 10.4107 136.066 9.568C135.596 8.72533 135.362 7.712 135.362 6.528C135.362 5.312 135.618 4.25067 136.13 3.344C136.642 2.43733 137.356 1.73333 138.274 1.232C139.191 0.730666 140.263 0.48 141.49 0.48C142.61 0.48 143.586 0.714666 144.418 1.184C145.26 1.65333 145.911 2.30933 146.37 3.152C146.839 3.984 147.074 4.96533 147.074 6.096C147.074 7.29067 146.828 8.34133 146.338 9.248C145.858 10.1547 145.18 10.864 144.306 11.376C143.431 11.888 142.418 12.1493 141.266 12.16ZM141.186 9.36C142.007 9.36 142.658 9.072 143.138 8.496C143.618 7.90933 143.858 7.13067 143.858 6.16C143.858 5.28533 143.628 4.58667 143.17 4.064C142.722 3.54133 142.119 3.28 141.362 3.28C140.807 3.28 140.322 3.41867 139.906 3.696C139.49 3.96267 139.164 4.336 138.93 4.816C138.706 5.28533 138.594 5.82933 138.594 6.448C138.594 7.36533 138.823 8.08 139.282 8.592C139.74 9.104 140.375 9.36 141.186 9.36ZM158.484 9.056L159.22 11.52C158.964 11.7227 158.622 11.8827 158.196 12C157.769 12.128 157.337 12.192 156.9 12.192C156.057 12.192 155.358 12.0373 154.804 11.728C154.249 11.4187 153.801 10.9813 153.46 10.416L152.404 8.64C152.276 8.42667 152.153 8.26667 152.036 8.16C151.918 8.05333 151.774 7.984 151.604 7.952V12H148.468V0.639999H152.308C154.057 0.639999 155.348 0.970666 156.18 1.632C157.022 2.29333 157.444 3.21067 157.444 4.384C157.444 5.216 157.204 5.90933 156.724 6.464C156.244 7.008 155.609 7.392 154.82 7.616C155.225 7.744 155.545 7.984 155.78 8.336L156.068 8.768C156.334 9.184 156.745 9.392 157.3 9.392C157.502 9.392 157.7 9.37067 157.892 9.328C158.094 9.27467 158.292 9.184 158.484 9.056ZM152.276 3.216H151.604V5.472H152.42C153.113 5.472 153.593 5.38133 153.86 5.2C154.137 5.008 154.276 4.71467 154.276 4.32C154.276 3.89333 154.089 3.60533 153.716 3.456C153.353 3.296 152.873 3.216 152.276 3.216ZM167.85 3.376H162.714V4.928H167.434V7.664H162.714V9.264H167.978L167.786 12H159.562V0.639999H167.85V3.376ZM172.901 12.16C171.472 12.16 170.357 11.856 169.557 11.248C168.757 10.64 168.304 9.75467 168.197 8.592L171.157 8.16C171.179 8.56533 171.355 8.896 171.685 9.152C172.027 9.39733 172.464 9.52 172.997 9.52C173.979 9.52 174.469 9.264 174.469 8.752C174.469 8.51733 174.331 8.33067 174.053 8.192C173.787 8.04267 173.344 7.89333 172.725 7.744C171.403 7.424 170.432 6.99733 169.813 6.464C169.195 5.93067 168.891 5.17867 168.901 4.208C168.912 3.472 169.104 2.82667 169.477 2.272C169.861 1.70667 170.395 1.26933 171.077 0.959999C171.771 0.639999 172.581 0.48 173.509 0.48C174.651 0.48 175.589 0.768 176.325 1.344C177.072 1.92 177.499 2.704 177.605 3.696L174.805 4.176C174.752 3.86667 174.587 3.616 174.309 3.424C174.043 3.22133 173.717 3.12 173.333 3.12C172.971 3.12 172.677 3.19467 172.453 3.344C172.24 3.48267 172.133 3.67467 172.133 3.92C172.133 4.144 172.24 4.34133 172.453 4.512C172.677 4.672 173.093 4.82667 173.701 4.976C174.576 5.18933 175.307 5.43467 175.893 5.712C176.491 5.97867 176.939 6.32533 177.237 6.752C177.547 7.17867 177.701 7.73867 177.701 8.432C177.701 9.168 177.499 9.81867 177.093 10.384C176.699 10.9387 176.139 11.376 175.413 11.696C174.699 12.0053 173.861 12.16 172.901 12.16Z" fill="black" fill-opacity="0.67"/>
</svg>
