<svg width="111" height="34" viewBox="0 0 111 34" fill="none" xmlns="http://www.w3.org/2000/svg">
<g clip-path="url(#clip0_221_27)">
<path d="M78.133 4.44347H74.8326V16.8126C74.8326 18.0817 73.804 19.1103 72.5349 19.1103H70.5813V4.44347H64.9573V0.713867H80.4233V2.14947C80.4307 3.41487 79.4021 4.44347 78.133 4.44347Z" fill="#1E1248"/>
<path d="M82.5027 19.1066V3.0079C82.5027 1.7388 83.5313 0.710205 84.8004 0.710205H86.754V16.8089C86.754 18.078 85.7254 19.1066 84.4563 19.1066H82.5027V19.1066Z" fill="#1E1248"/>
<path d="M89.2107 9.727C89.2107 8.6059 89.4179 7.5033 89.8323 6.4229C90.2467 5.3425 90.8498 4.362 91.6453 3.4814C92.4408 2.6008 93.4065 1.8978 94.5461 1.3687C95.6857 0.843304 96.9807 0.576904 98.4311 0.576904C100.159 0.576904 101.657 0.946904 102.927 1.6906C104.196 2.4343 105.143 3.4 105.764 4.5914L104.344 5.583C103.485 6.1824 102.312 6.1528 101.532 5.4572C101.487 5.4165 101.443 5.3795 101.398 5.3425C100.94 4.9799 100.44 4.7246 99.8963 4.5766C99.3524 4.4286 98.8307 4.3583 98.3275 4.3583C97.5172 4.3583 96.8068 4.5174 96.2037 4.8393C95.6006 5.1575 95.0974 5.5867 94.7015 6.1232C94.3056 6.6597 94.0096 7.2554 93.8209 7.9103C93.6322 8.5689 93.536 9.2238 93.536 9.8787C93.536 10.6039 93.647 11.3032 93.8727 11.9766C94.0984 12.65 94.4203 13.2457 94.8458 13.7637C95.2676 14.2817 95.7819 14.6924 96.3887 14.9958C96.9918 15.2992 97.6578 15.4509 98.383 15.4509C98.901 15.4509 99.4264 15.3658 99.9629 15.1919C100.499 15.018 100.995 14.7479 101.454 14.3742C101.506 14.3335 101.554 14.2891 101.602 14.2447C102.349 13.5602 103.474 13.4825 104.351 13.9968L105.975 14.9551C105.613 15.8542 105.017 16.6238 104.188 17.2602C103.359 17.9003 102.423 18.3887 101.376 18.7254C100.333 19.0621 99.3006 19.2323 98.2794 19.2323C96.9474 19.2323 95.7264 18.9585 94.6127 18.4146C93.499 17.8707 92.5407 17.1455 91.7378 16.239C90.9349 15.3325 90.3133 14.315 89.873 13.1828C89.4327 12.0543 89.2107 10.9036 89.2107 9.727Z" fill="#1E1248"/>
<path d="M108.935 25.2522H64.0211C62.8815 25.2522 61.9565 24.3272 61.9565 23.1876V22.9508V19.0103H62.7224C63.9286 19.0103 64.9091 19.9538 64.9091 21.1193V22.0998H108.047V21.1193C108.047 19.9538 109.028 19.0103 110.234 19.0103H111V23.1876C111 24.3272 110.075 25.2522 108.935 25.2522Z" fill="#E50051"/>
<path d="M0 18.9696V0.573242H7.6701C8.4804 0.573242 9.2241 0.739742 9.8975 1.08014C10.5709 1.42054 11.1592 1.86454 11.6587 2.42694C12.1582 2.98934 12.5467 3.61834 12.8242 4.31764C13.1017 5.01694 13.2386 5.73104 13.2386 6.45624C13.2386 7.45894 13.0129 8.41354 12.5652 9.32004C12.1175 10.2265 11.4848 10.9628 10.6745 11.5215C9.8642 12.0839 8.9133 12.3651 7.8255 12.3651H2.331V17.4415C2.331 18.2851 1.6465 18.9733 0.7992 18.9733H0V18.9696ZM2.331 10.2894H7.696C8.3361 10.2894 8.8911 10.1155 9.3684 9.77144C9.842 9.42734 10.2157 8.96114 10.4821 8.37284C10.7485 7.78454 10.8854 7.14814 10.8854 6.45624C10.8854 5.73104 10.73 5.07984 10.4192 4.49894C10.1084 3.92174 9.7014 3.46664 9.2019 3.13734C8.695 2.81174 8.1437 2.64524 7.5406 2.64524H2.331V10.2894Z" fill="#1E1248"/>
<path d="M14.5596 15.081C14.5596 14.2226 14.8075 13.4789 15.2996 12.8536C15.7917 12.2283 16.4688 11.7436 17.3346 11.3995C18.1967 11.0554 19.1994 10.8852 20.339 10.8852C20.9421 10.8852 21.5822 10.9333 22.2556 11.0258C22.929 11.122 23.5247 11.2626 24.0427 11.455V10.4745C24.0427 9.45333 23.7319 8.64673 23.1103 8.05843C22.4887 7.47013 21.6081 7.17783 20.4685 7.17783C19.7248 7.17783 19.0144 7.31103 18.3299 7.58113C18.0561 7.68843 17.7749 7.81423 17.49 7.95853C16.7352 8.33963 15.8139 8.05103 15.4254 7.29993L15.3366 7.12603C16.2172 6.52293 17.0978 6.06783 17.9784 5.76443C18.859 5.46103 19.7729 5.30933 20.7238 5.30933C22.4517 5.30933 23.817 5.78293 24.816 6.73383C25.8187 7.68473 26.3182 9.00563 26.3182 10.7002V16.376C26.3182 16.6498 26.3737 16.8496 26.4884 16.9791C26.5994 17.1086 26.7844 17.1789 27.0434 17.1974V18.3925C27.0434 18.7218 26.7955 18.9993 26.4662 19.0363H26.4625C26.2997 19.0622 26.1665 19.0733 26.0629 19.0733C25.5264 19.0733 25.1268 18.9253 24.8567 18.633C24.5903 18.3407 24.4386 18.0299 24.4016 17.7006L24.3498 16.8459C23.7615 17.6044 22.9919 18.1927 22.0447 18.6071C21.0938 19.0215 20.154 19.2287 19.2216 19.2287C18.3225 19.2287 17.5196 19.0437 16.8129 18.6737C16.1025 18.3037 15.5512 17.8079 15.1553 17.1789C14.7594 16.5536 14.5596 15.8543 14.5596 15.081ZM23.3693 16.0282C23.5765 15.7877 23.7393 15.5472 23.8614 15.2956C23.9835 15.0477 24.0427 14.8368 24.0427 14.6666V12.9979C23.5062 12.7944 22.9438 12.6353 22.3592 12.5243C21.7709 12.4133 21.1937 12.3578 20.6239 12.3578C19.4658 12.3578 18.5297 12.5835 17.8119 13.0386C17.0941 13.4937 16.7352 14.1116 16.7352 14.8997C16.7352 15.3289 16.8536 15.7433 17.083 16.1429C17.3161 16.5462 17.6602 16.8755 18.119 17.1308C18.5778 17.3861 19.1439 17.5156 19.8173 17.5156C20.524 17.5156 21.1974 17.375 21.8375 17.0938C22.4776 16.8126 22.9882 16.4574 23.3693 16.0282Z" fill="#1E1248"/>
<path d="M35.3645 19.2287C34.4506 19.2287 33.607 19.0437 32.8374 18.67C32.0678 18.3 31.4092 17.7894 30.8542 17.1419C30.3029 16.4944 29.8737 15.7544 29.5703 14.9256C29.2669 14.0968 29.1152 13.2347 29.1152 12.3356C29.1152 11.3847 29.2669 10.4893 29.5703 9.64199C29.8737 8.79469 30.3029 8.04729 30.8653 7.39979C31.4277 6.75229 32.0863 6.24169 32.8485 5.87169C33.607 5.50169 34.4543 5.31299 35.3867 5.31299C36.5078 5.31299 37.4883 5.58679 38.3282 6.13069C39.1644 6.67459 39.8711 7.37019 40.4409 8.21749V7.05569C40.4409 6.21209 41.1254 5.52389 41.9727 5.52389H42.4611V18.8402C42.4611 20.113 42.154 21.1897 41.5398 22.0666C40.9256 22.9435 40.0968 23.6095 39.0534 24.0683C38.01 24.5234 36.8482 24.7528 35.568 24.7528C34.0473 24.7528 32.8041 24.4864 31.8384 23.9499C30.869 23.4134 30.0661 22.6882 29.4297 21.7743L29.6073 21.6152C30.1882 21.1009 31.0577 21.1157 31.6423 21.6263C31.9975 21.9371 32.3934 22.1924 32.8337 22.3959C33.6884 22.7918 34.5986 22.9916 35.568 22.9916C36.3968 22.9916 37.1627 22.8436 37.862 22.5513C38.5613 22.2553 39.1237 21.8076 39.5455 21.2008C39.9673 20.594 40.1819 19.8355 40.1819 18.9216V16.5388C39.6824 17.3676 38.9942 18.0262 38.121 18.5072C37.2515 18.9845 36.3302 19.2287 35.3645 19.2287ZM36.0638 17.3602C36.5485 17.3602 37.0147 17.2751 37.4624 17.1012C37.9101 16.9273 38.3245 16.6979 38.7056 16.413C39.0867 16.1281 39.4049 15.8025 39.6639 15.4399C39.9229 15.0773 40.0968 14.7073 40.1819 14.3262V10.4412C39.9414 9.81959 39.5936 9.27199 39.1459 8.79469C38.6982 8.32109 38.1876 7.94739 37.6178 7.68099C37.048 7.41459 36.4597 7.27769 35.8566 7.27769C35.1647 7.27769 34.5468 7.42569 34.0029 7.71799C33.459 8.01029 32.9965 8.40619 32.6154 8.89829C32.2343 9.39039 31.942 9.93799 31.7348 10.5448C31.5276 11.1479 31.424 11.7621 31.424 12.3837C31.424 13.0571 31.5461 13.6935 31.7866 14.2892C32.0271 14.8849 32.3564 15.4177 32.7708 15.8839C33.1852 16.3501 33.6773 16.7127 34.2471 16.9717C34.8206 17.2307 35.4237 17.3602 36.0638 17.3602Z" fill="#1E1248"/>
<path d="M52.0478 19.2286C51.0303 19.2286 50.1053 19.0436 49.2765 18.6773C48.4477 18.3073 47.7299 17.8041 47.1268 17.1603C46.5237 16.5165 46.0538 15.7765 45.7282 14.9366C45.3989 14.0967 45.2361 13.2124 45.2361 12.2874C45.2361 11.3439 45.3989 10.4522 45.7282 9.61231C46.0575 8.77241 46.5237 8.03241 47.1268 7.38861C47.7299 6.74481 48.4514 6.24161 49.2913 5.87161C50.1275 5.50531 51.0562 5.32031 52.0774 5.32031C53.0801 5.32031 53.994 5.50531 54.8228 5.87161C55.6516 6.24161 56.3731 6.74481 56.9873 7.38861C57.6015 8.03241 58.0714 8.77241 58.4007 9.61231C58.73 10.4522 58.8928 11.3439 58.8928 12.2874C58.8928 13.2124 58.73 14.0967 58.4007 14.9366C58.0714 15.7765 57.6052 16.5165 57.0021 17.1603C56.399 17.8041 55.6775 18.311 54.8376 18.6773C53.9977 19.0436 53.069 19.2286 52.0478 19.2286ZM47.5671 12.3096C47.5671 13.2309 47.7706 14.0708 48.1776 14.8219C48.5846 15.573 49.1248 16.1687 49.7982 16.6053C50.4716 17.0419 51.2227 17.2602 52.0515 17.2602C52.8803 17.2602 53.6351 17.0382 54.3196 16.5942C55.0004 16.1502 55.5443 15.5471 55.9513 14.7849C56.3583 14.0227 56.5618 13.1828 56.5618 12.2578C56.5618 11.3365 56.3583 10.4966 55.9513 9.74551C55.5443 8.99441 55.0004 8.39501 54.3196 7.95101C53.6388 7.50701 52.8803 7.28501 52.0515 7.28501C51.2227 7.28501 50.4716 7.51071 49.7982 7.96581C49.1248 8.41721 48.5846 9.02031 48.1776 9.77141C47.7706 10.5225 47.5671 11.3698 47.5671 12.3096Z" fill="#1E1248"/>
<path d="M62.445 32.3452H61.8567V27.3132H62.4894V29.1077C62.7558 28.7821 63.0999 28.6156 63.5143 28.6156C63.7437 28.6156 63.962 28.66 64.1692 28.7525C64.3764 28.8413 64.5429 28.9708 64.6761 29.1336C64.8093 29.2964 64.9129 29.4962 64.9869 29.7256C65.0609 29.955 65.0979 30.2029 65.0979 30.4656C65.0979 31.0909 64.9388 31.5719 64.6206 31.916C64.3024 32.2564 63.9213 32.4266 63.4773 32.4266C63.037 32.4266 62.6892 32.2453 62.4376 31.8864V32.3452H62.445ZM62.4376 30.4952C62.4376 30.9318 62.4968 31.25 62.6226 31.4424C62.8224 31.7606 63.0925 31.9197 63.4329 31.9197C63.7104 31.9197 63.9509 31.8013 64.1507 31.5682C64.3542 31.3351 64.4541 30.9836 64.4541 30.5211C64.4541 30.0438 64.3579 29.6923 64.1618 29.4666C63.9694 29.2409 63.7326 29.1262 63.4588 29.1262C63.1813 29.1262 62.9408 29.2446 62.741 29.4777C62.5412 29.7108 62.4376 30.0512 62.4376 30.4952Z" fill="#1E1248"/>
<path d="M65.8452 33.7475L65.7749 33.1666C65.9118 33.2036 66.0339 33.2221 66.1375 33.2221C66.2781 33.2221 66.3928 33.1999 66.4742 33.1518C66.5593 33.1074 66.6296 33.0408 66.6814 32.9594C66.7221 32.8965 66.785 32.7448 66.8738 32.5006C66.8849 32.4673 66.9034 32.4155 66.9293 32.3489L65.5085 28.697H66.193L66.97 30.8097C67.0699 31.0761 67.1624 31.3573 67.2401 31.6533C67.3141 31.3684 67.3992 31.0909 67.5028 30.8208L68.302 28.697H68.9347L67.5102 32.4044C67.3585 32.804 67.2401 33.0815 67.155 33.2332C67.044 33.4367 66.9145 33.5847 66.7665 33.6809C66.6222 33.7771 66.4483 33.8252 66.2448 33.8252C66.1338 33.8252 65.9969 33.7993 65.8452 33.7475Z" fill="#1E1248"/>
<path d="M72.1872 32.3452H71.1216L72.202 27.3132H74.3036C74.6773 27.3132 74.9733 27.3576 75.1916 27.4427C75.4099 27.5278 75.5801 27.6721 75.7059 27.8682C75.8317 28.068 75.8946 28.3011 75.8946 28.5786C75.8946 28.8339 75.8428 29.0781 75.7429 29.3186C75.643 29.5591 75.5172 29.7515 75.3729 29.8958C75.2286 30.0401 75.0695 30.1511 74.8993 30.2251C74.7291 30.2991 74.5034 30.3546 74.2148 30.3953C74.0483 30.4175 73.7338 30.4286 73.2787 30.4286H72.5979L72.1872 32.3452ZM72.7755 29.5924H73.1048C73.6672 29.5924 74.0409 29.5591 74.2296 29.4888C74.4183 29.4185 74.5663 29.3112 74.6736 29.1595C74.7809 29.0078 74.8364 28.8413 74.8364 28.66C74.8364 28.5379 74.8105 28.438 74.755 28.3603C74.6995 28.2826 74.6218 28.2271 74.5219 28.1901C74.422 28.1531 74.2 28.1383 73.8559 28.1383H73.0937L72.7755 29.5924Z" fill="#1E1248"/>
<path d="M77.3598 29.7329L76.3719 29.6515C76.4829 29.3259 76.6827 29.0743 76.9602 28.8893C77.2414 28.708 77.6114 28.6155 78.0739 28.6155C78.5549 28.6155 78.9101 28.7117 79.1432 28.9004C79.3726 29.0891 79.4873 29.3185 79.4873 29.5923C79.4873 29.7033 79.4762 29.818 79.4577 29.9438C79.4392 30.0659 79.3689 30.3915 79.2468 30.9169C79.1469 31.3535 79.0988 31.6569 79.0988 31.8308C79.0988 31.9862 79.1284 32.1601 79.1839 32.3488H78.1997C78.159 32.2156 78.1368 32.0787 78.1257 31.9381C77.9777 32.0972 77.8075 32.223 77.6151 32.3081C77.4227 32.3932 77.2303 32.4376 77.0342 32.4376C76.7234 32.4376 76.4681 32.3377 76.2646 32.1416C76.0611 31.9418 75.9612 31.6902 75.9612 31.3794C75.9612 31.0316 76.0722 30.7541 76.2942 30.5469C76.5162 30.3397 76.9121 30.2139 77.4819 30.1695C77.9629 30.1325 78.2848 30.0844 78.4476 30.0289C78.4883 29.892 78.5105 29.781 78.5105 29.6996C78.5105 29.596 78.4661 29.5072 78.381 29.4369C78.2959 29.3666 78.1664 29.3296 77.9925 29.3296C77.8112 29.3296 77.6706 29.3666 77.5633 29.4369C77.4708 29.4961 77.3968 29.5997 77.3598 29.7329ZM78.3218 30.6468C78.2589 30.6616 78.1812 30.6764 78.0776 30.6912C77.5707 30.7504 77.2377 30.8392 77.0823 30.9539C76.9713 31.0353 76.9158 31.1463 76.9158 31.2869C76.9158 31.4016 76.9565 31.4978 77.0416 31.5755C77.1267 31.6532 77.2377 31.6939 77.3746 31.6939C77.5263 31.6939 77.6706 31.6569 77.8075 31.5866C77.9444 31.5126 78.0443 31.4201 78.1109 31.3091C78.1775 31.1944 78.2367 31.0205 78.2885 30.78L78.3218 30.6468Z" fill="#1E1248"/>
<path d="M80.2605 28.7007H81.2669L81.5222 30.5174C81.5851 30.9836 81.6221 31.3129 81.6295 31.4979C81.7627 31.1242 81.9403 30.732 82.1734 30.3176L83.0688 28.7007H84.1418L81.8293 32.7041C81.6406 33.0371 81.4889 33.2665 81.3816 33.3997C81.2706 33.5329 81.1411 33.6365 80.9857 33.7105C80.8303 33.7845 80.6453 33.8252 80.4307 33.8252C80.2161 33.8252 79.9756 33.7882 79.7092 33.7142L79.798 32.9779C79.9201 33.0112 80.0385 33.0297 80.1532 33.0297C80.464 33.0297 80.7193 32.8003 80.9191 32.3415L80.2605 28.7007Z" fill="#1E1248"/>
<path d="M86.7132 28.7006H87.6715L87.5901 29.0743C87.7936 28.9078 87.986 28.7931 88.1636 28.7191C88.3412 28.6488 88.5336 28.6118 88.7371 28.6118C89.1293 28.6118 89.4438 28.745 89.6843 29.0077C89.9211 29.2704 90.0432 29.6626 90.0432 30.1843C90.0432 30.8429 89.836 31.3942 89.4253 31.8493C89.0738 32.2378 88.6557 32.4302 88.1747 32.4302C87.6789 32.4302 87.3052 32.2341 87.0499 31.8419L86.6429 33.7326H85.6328L86.7132 28.7006ZM87.3237 30.7911C87.3237 31.076 87.394 31.2943 87.5383 31.4534C87.6789 31.6088 87.8491 31.6902 88.0415 31.6902C88.208 31.6902 88.3708 31.631 88.5225 31.5126C88.6779 31.3942 88.8074 31.1981 88.9073 30.9243C89.0109 30.6505 89.059 30.3989 89.059 30.1658C89.059 29.892 88.9924 29.6848 88.8592 29.5405C88.726 29.3962 88.5558 29.3222 88.3486 29.3222C88.1562 29.3222 87.9823 29.3888 87.8232 29.522C87.6641 29.6552 87.542 29.8513 87.4532 30.114C87.3681 30.3693 87.3237 30.595 87.3237 30.7911Z" fill="#1E1248"/>
<path d="M94.0172 30.8281H91.479C91.4753 30.8688 91.4753 30.8984 91.4753 30.9169C91.4753 31.1611 91.5456 31.3535 91.6899 31.5052C91.8305 31.6532 92.0044 31.7272 92.2079 31.7272C92.5446 31.7272 92.8073 31.557 92.9923 31.2203L93.8988 31.3683C93.7212 31.7235 93.4881 31.9899 93.1921 32.1675C92.8961 32.3451 92.5668 32.4339 92.2005 32.4339C91.6973 32.4339 91.2903 32.2785 90.9758 31.9677C90.6613 31.6569 90.5022 31.2462 90.5022 30.7356C90.5022 30.2361 90.6428 29.7921 90.9277 29.4036C91.3162 28.8782 91.8675 28.6155 92.5853 28.6155C93.0441 28.6155 93.4067 28.7524 93.6768 29.0299C93.9469 29.3074 94.0838 29.6922 94.0838 30.188C94.0875 30.4248 94.0616 30.6357 94.0172 30.8281ZM93.1625 30.225C93.1662 30.1806 93.1662 30.1473 93.1662 30.1251C93.1662 29.855 93.1033 29.6515 92.9812 29.5183C92.8554 29.3851 92.6889 29.3148 92.4817 29.3148C92.2745 29.3148 92.0858 29.3925 91.9193 29.5442C91.7528 29.6959 91.6418 29.9253 91.5826 30.225H93.1625V30.225Z" fill="#1E1248"/>
<path d="M95.1123 28.7006H96.0558L95.9041 29.4073C96.2556 28.8782 96.6367 28.6155 97.0474 28.6155C97.1917 28.6155 97.3508 28.6525 97.5173 28.7228L97.1288 29.5294C97.0363 29.4961 96.9401 29.4813 96.8365 29.4813C96.6626 29.4813 96.485 29.5442 96.3074 29.6737C96.1261 29.8032 95.9855 29.9734 95.8856 30.188C95.7857 30.4026 95.6858 30.743 95.5859 31.2055L95.338 32.3488H94.3279L95.1123 28.7006Z" fill="#1E1248"/>
<path d="M101.454 32.3452H100.389L101.291 28.1531H99.7781L99.9594 27.3132H104.029L103.848 28.1531H102.353L101.454 32.3452Z" fill="#1E1248"/>
<path d="M103.567 32.3452L104.647 27.3132H105.709L104.632 32.3452H103.567Z" fill="#1E1248"/>
<path d="M109.361 30.5321L110.43 30.6912C110.223 31.2573 109.909 31.6902 109.49 31.9862C109.072 32.2859 108.584 32.4339 108.022 32.4339C107.389 32.4339 106.897 32.2489 106.542 31.8789C106.186 31.5089 106.009 30.9687 106.009 30.2657C106.009 29.6922 106.127 29.1705 106.368 28.6969C106.604 28.2233 106.937 27.857 107.359 27.6054C107.781 27.3538 108.244 27.228 108.739 27.228C109.298 27.228 109.749 27.3723 110.097 27.6646C110.441 27.9569 110.645 28.3528 110.708 28.856L109.69 28.9522C109.635 28.6599 109.524 28.4453 109.365 28.3158C109.206 28.1826 108.991 28.1197 108.721 28.1197C108.429 28.1197 108.155 28.2085 107.899 28.3824C107.644 28.5563 107.441 28.8264 107.289 29.1964C107.137 29.5664 107.06 29.9364 107.06 30.3027C107.06 30.706 107.159 31.0168 107.356 31.2351C107.555 31.4534 107.8 31.5644 108.096 31.5644C108.369 31.5644 108.621 31.4793 108.85 31.3017C109.076 31.1315 109.246 30.8725 109.361 30.5321Z" fill="#1E1248"/>
</g>
<defs>
<clipPath id="clip0_221_27">
<rect width="111" height="33.2519" fill="white" transform="translate(0 0.573242)"/>
</clipPath>
</defs>
</svg>
