<?xml version="1.0" standalone="no"?>
<!DOCTYPE svg PUBLIC "-//W3C//DTD SVG 1.1//EN" "http://www.w3.org/Graphics/SVG/1.1/DTD/svg11.dtd">
<svg xmlns="http://www.w3.org/2000/svg" xmlns:xlink="http://www.w3.org/1999/xlink" width="2391" zoomAndPan="magnify" viewBox="0 0 2391 632.249985" height="632.25" preserveAspectRatio="xMidYMid meet" version="1.0"><path fill="#39e991" d="M 359.792969 92.566406 C 416.882812 92.566406 466.570312 124.019531 492.664062 170.496094 C 501.832031 167.59375 511.578125 166.011719 521.707031 166.011719 C 565.125 166.011719 601.792969 194.789062 613.765625 234.296875 C 691.234375 241.464844 751.90625 306.566406 751.90625 385.882812 C 751.90625 470.003906 683.699219 538.191406 599.570312 538.191406 L 246.964844 538.191406 C 162.835938 538.191406 94.628906 470.003906 94.628906 385.882812 C 94.628906 315.34375 142.65625 256.175781 207.761719 238.855469 C 210.945312 157.546875 277.691406 92.566406 359.792969 92.566406 M 359.792969 70.191406 C 271.066406 70.191406 197.898438 135.707031 186.738281 222.050781 C 118.589844 247.039062 72.246094 312.28125 72.246094 385.875 C 72.246094 482.199219 150.625 560.5625 246.964844 560.5625 L 599.5625 560.5625 C 695.902344 560.5625 774.28125 482.199219 774.28125 385.875 C 774.28125 299.9375 713.203125 228.347656 630.023438 213.890625 C 611.183594 171.324219 569.320312 143.628906 521.699219 143.628906 C 515.457031 143.628906 509.25 144.113281 503.117188 145.089844 C 470.636719 98.503906 417.144531 70.191406 359.792969 70.191406 Z M 359.792969 70.191406 " fill-opacity="1" fill-rule="nonzero"/><path fill="#39e991" d="M 490.554688 378.335938 C 483.414062 360.574219 470.128906 352.839844 428.6875 342.339844 C 386.722656 331.703125 379.742188 324.242188 379.261719 310.496094 C 379.03125 303.648438 381 298.136719 385.3125 293.671875 C 392.863281 285.808594 407.296875 281.4375 425.992188 281.339844 C 453.925781 281.125 468.480469 295.476562 470.972656 326.257812 C 471.464844 332.410156 476.984375 336.925781 483.019531 336.507812 C 489.171875 336.015625 494.632812 330.613281 494.128906 324.453125 C 491.015625 285.929688 468.023438 263.277344 438.183594 259.578125 L 438.183594 234.886719 C 438.183594 228.703125 433.171875 223.699219 426.992188 223.699219 C 420.808594 223.699219 415.804688 228.703125 415.804688 234.886719 L 415.804688 259.597656 C 393.421875 261.464844 380.023438 267.742188 370.019531 278.148438 C 361.550781 286.957031 356.875 298.40625 357.324219 311.25 C 358.480469 344.84375 386.542969 354.660156 423.390625 364 C 462.339844 373.859375 466.867188 379.132812 469.890625 386.679688 C 471.304688 390.210938 472.328125 400.257812 466.523438 408.886719 C 459.832031 418.820312 445.546875 424.078125 425.285156 424.078125 C 384.851562 424.078125 379.621094 393.097656 379.253906 379.773438 C 379.089844 373.589844 373.953125 368.421875 367.757812 368.898438 C 361.582031 369.054688 357.5625 374.210938 357.734375 380.386719 C 358.507812 408.445312 371.042969 440.714844 415.804688 445.742188 L 415.804688 470.265625 C 415.804688 476.441406 420.808594 481.453125 426.992188 481.453125 C 433.171875 481.453125 438.183594 476.441406 438.183594 470.265625 L 438.183594 445.957031 C 460.5625 443.421875 479.058594 431.5625 485.898438 421.410156 C 495.753906 406.789062 494.796875 388.816406 490.554688 378.335938 Z M 490.554688 378.335938 " fill-opacity="1" fill-rule="nonzero"/><path fill="#000000" d="M 1039.832031 202.949219 C 1052.066406 209.386719 1061.496094 218.078125 1068.117188 229.023438 C 1074.742188 239.964844 1078.054688 252.152344 1078.054688 265.578125 C 1078.054688 279.007812 1074.972656 291.054688 1068.808594 301.722656 C 1062.644531 312.390625 1053.402344 320.804688 1041.074219 326.96875 C 1028.75 333.128906 1013.847656 336.210938 996.371094 336.210938 L 958.289062 336.210938 L 958.289062 394.980469 L 914.6875 394.980469 L 914.6875 193.292969 L 996.644531 193.292969 C 1013.203125 193.292969 1027.597656 196.511719 1039.832031 202.949219 Z M 1026.171875 288.753906 C 1031.507812 282.316406 1034.175781 274.59375 1034.175781 265.578125 C 1034.175781 259.695312 1032.796875 254.128906 1030.035156 248.886719 C 1027.277344 243.644531 1023.183594 239.367188 1017.757812 236.058594 C 1012.328125 232.746094 1005.84375 231.089844 998.300781 231.089844 L 958.289062 231.089844 L 958.289062 298.410156 L 1002.71875 298.410156 C 1013.019531 298.410156 1020.839844 295.191406 1026.171875 288.753906 Z M 1216.582031 379.804688 C 1213.085938 384.585938 1207.0625 388.863281 1198.507812 392.632812 C 1189.953125 396.402344 1180.617188 398.289062 1170.5 398.289062 C 1154.859375 398.289062 1141.292969 394.792969 1129.792969 387.804688 C 1118.296875 380.816406 1109.511719 371.296875 1103.441406 359.25 C 1097.371094 347.203125 1094.335938 333.820312 1094.335938 319.105469 C 1094.335938 304.390625 1097.371094 291.007812 1103.441406 278.960938 C 1109.511719 266.914062 1118.296875 257.394531 1129.792969 250.40625 C 1141.292969 243.414062 1154.859375 239.921875 1170.5 239.921875 C 1180.984375 239.921875 1190.230469 241.714844 1198.230469 245.300781 C 1206.234375 248.886719 1212.351562 253.441406 1216.582031 258.957031 L 1216.582031 243.230469 L 1257.425781 243.230469 L 1257.425781 394.980469 L 1216.582031 394.980469 Z M 1206.925781 288.066406 C 1199.382812 280.0625 1189.261719 276.0625 1176.570312 276.0625 C 1163.691406 276.0625 1153.527344 280.0625 1146.074219 288.066406 C 1138.625 296.066406 1134.898438 306.414062 1134.898438 319.105469 C 1134.898438 331.429688 1138.71875 341.636719 1146.351562 349.730469 C 1153.988281 357.824219 1164.058594 361.871094 1176.570312 361.871094 C 1189.445312 361.871094 1199.613281 358.054688 1207.0625 350.421875 C 1214.511719 342.785156 1218.238281 332.347656 1218.238281 319.105469 C 1218.238281 306.414062 1214.46875 296.066406 1206.925781 288.066406 Z M 1433.898438 433.191406 C 1420.375 445.792969 1401.566406 452.089844 1377.464844 452.089844 C 1348.582031 452.089844 1324.390625 444.457031 1304.890625 429.191406 L 1325.035156 399.945312 C 1331.289062 404.910156 1338.695312 408.957031 1347.25 412.085938 C 1355.804688 415.210938 1364.863281 416.773438 1374.429688 416.773438 C 1400.371094 416.773438 1413.339844 405.003906 1413.339844 381.460938 L 1413.339844 378.976562 C 1402.300781 387.988281 1388.136719 392.496094 1370.84375 392.496094 C 1354.835938 392.496094 1340.761719 389.140625 1328.621094 382.425781 C 1316.480469 375.710938 1307.1875 366.5625 1300.75 354.972656 C 1294.3125 343.382812 1291.089844 330.601562 1291.089844 316.621094 C 1291.089844 302.457031 1294.3125 289.628906 1300.75 278.132812 C 1307.1875 266.636719 1316.433594 257.484375 1328.484375 250.679688 C 1340.535156 243.875 1354.652344 240.472656 1370.84375 240.472656 C 1388.136719 240.472656 1402.300781 244.976562 1413.339844 253.992188 L 1413.339844 243.230469 L 1454.179688 243.230469 L 1454.179688 381.460938 C 1454.179688 403.347656 1447.421875 420.59375 1433.898438 433.191406 Z M 1394.4375 352.351562 C 1400.785156 348.765625 1405.796875 343.796875 1409.476562 337.453125 C 1413.15625 331.105469 1414.996094 324.164062 1414.996094 316.621094 C 1414.996094 308.894531 1413.15625 301.90625 1409.476562 295.652344 C 1405.796875 289.398438 1400.785156 284.480469 1394.4375 280.890625 C 1388.089844 277.304688 1381.054688 275.511719 1373.324219 275.511719 C 1360.816406 275.511719 1350.742188 279.421875 1343.109375 287.238281 C 1335.472656 295.054688 1331.65625 304.851562 1331.65625 316.621094 C 1331.65625 328.761719 1335.382812 338.648438 1342.832031 346.28125 C 1350.285156 353.914062 1360.449219 357.730469 1373.324219 357.730469 C 1381.054688 357.730469 1388.089844 355.9375 1394.4375 352.351562 Z M 1528.828125 387.941406 C 1516.226562 380.863281 1506.246094 371.25 1498.886719 359.109375 C 1491.527344 346.972656 1487.847656 333.726562 1487.847656 319.378906 C 1487.847656 305.21875 1491.527344 292.066406 1498.886719 279.925781 C 1506.246094 267.785156 1516.226562 258.175781 1528.828125 251.09375 C 1541.429688 244.011719 1555.179688 240.472656 1570.082031 240.472656 C 1584.984375 240.472656 1598.78125 244.011719 1611.476562 251.09375 C 1624.171875 258.175781 1634.242188 267.785156 1641.695312 279.925781 C 1649.144531 292.066406 1652.871094 305.21875 1652.871094 319.378906 C 1652.871094 333.726562 1649.144531 346.972656 1641.695312 359.109375 C 1634.242188 371.25 1624.171875 380.863281 1611.476562 387.941406 C 1598.78125 395.023438 1584.984375 398.566406 1570.082031 398.566406 C 1555.179688 398.566406 1541.429688 395.023438 1528.828125 387.941406 Z M 1549.109375 282.273438 C 1542.671875 286.042969 1537.613281 291.191406 1533.933594 297.722656 C 1530.253906 304.253906 1528.414062 311.472656 1528.414062 319.378906 C 1528.414062 327.65625 1530.207031 335.0625 1533.792969 341.589844 C 1537.382812 348.121094 1542.347656 353.269531 1548.695312 357.042969 C 1555.042969 360.8125 1562.171875 362.699219 1570.082031 362.699219 C 1577.808594 362.699219 1584.847656 360.8125 1591.195312 357.042969 C 1597.539062 353.269531 1602.554688 348.074219 1606.234375 341.453125 C 1609.914062 334.832031 1611.753906 327.472656 1611.753906 319.378906 C 1611.753906 311.472656 1609.914062 304.253906 1606.234375 297.722656 C 1602.554688 291.191406 1597.539062 286.042969 1591.195312 282.273438 C 1584.847656 278.5 1577.808594 276.617188 1570.082031 276.617188 C 1562.539062 276.617188 1555.550781 278.5 1549.109375 282.273438 Z M 1758.835938 282.824219 C 1750.925781 284.753906 1743.660156 289.308594 1737.035156 296.480469 C 1730.414062 303.652344 1727.101562 314.136719 1727.101562 327.933594 L 1727.101562 394.980469 L 1685.984375 394.980469 L 1685.984375 243.230469 L 1727.101562 243.230469 L 1727.101562 263.371094 C 1733.910156 254.359375 1742.234375 248.242188 1752.074219 245.023438 C 1761.917969 241.804688 1770.886719 240.289062 1778.980469 240.472656 L 1778.980469 280.753906 C 1773.460938 280.203125 1766.746094 280.890625 1758.835938 282.824219 Z M 1915.855469 379.804688 C 1912.359375 384.585938 1906.335938 388.863281 1897.78125 392.632812 C 1889.226562 396.402344 1879.890625 398.289062 1869.769531 398.289062 C 1854.132812 398.289062 1840.566406 394.792969 1829.066406 387.804688 C 1817.570312 380.816406 1808.785156 371.296875 1802.714844 359.25 C 1796.644531 347.203125 1793.605469 333.820312 1793.605469 319.105469 C 1793.605469 304.390625 1796.644531 291.007812 1802.714844 278.960938 C 1808.785156 266.914062 1817.570312 257.394531 1829.066406 250.40625 C 1840.566406 243.414062 1854.132812 239.921875 1869.769531 239.921875 C 1880.257812 239.921875 1889.503906 241.714844 1897.503906 245.300781 C 1905.507812 248.886719 1911.625 253.441406 1915.855469 258.957031 L 1915.855469 243.230469 L 1956.699219 243.230469 L 1956.699219 394.980469 L 1915.855469 394.980469 Z M 1906.199219 288.066406 C 1898.65625 280.0625 1888.535156 276.0625 1875.84375 276.0625 C 1862.964844 276.0625 1852.800781 280.0625 1845.347656 288.066406 C 1837.898438 296.066406 1834.171875 306.414062 1834.171875 319.105469 C 1834.171875 331.429688 1837.992188 341.636719 1845.625 349.730469 C 1853.261719 357.824219 1863.332031 361.871094 1875.84375 361.871094 C 1888.71875 361.871094 1898.882812 358.054688 1906.335938 350.421875 C 1913.785156 342.785156 1917.511719 332.347656 1917.511719 319.105469 C 1917.511719 306.414062 1913.742188 296.066406 1906.199219 288.066406 Z M 1997.816406 186.394531 L 2039.207031 186.394531 L 2039.207031 394.980469 L 1997.816406 394.980469 Z M 2117.304688 220.746094 C 2112.890625 225.066406 2107.554688 227.230469 2101.296875 227.230469 C 2094.859375 227.230469 2089.386719 225.066406 2084.878906 220.746094 C 2080.371094 216.421875 2078.117188 211.132812 2078.117188 204.878906 C 2078.117188 198.808594 2080.371094 193.613281 2084.878906 189.292969 C 2089.386719 184.96875 2094.859375 182.808594 2101.296875 182.808594 C 2107.554688 182.808594 2112.890625 184.96875 2117.304688 189.292969 C 2121.71875 193.613281 2123.925781 198.808594 2123.925781 204.878906 C 2123.925781 211.132812 2121.71875 216.421875 2117.304688 220.746094 Z M 2080.601562 243.507812 L 2121.996094 243.507812 L 2121.996094 394.980469 L 2080.601562 394.980469 Z M 2277.910156 379.804688 C 2274.414062 384.585938 2268.390625 388.863281 2259.835938 392.632812 C 2251.28125 396.402344 2241.945312 398.289062 2231.824219 398.289062 C 2216.1875 398.289062 2202.621094 394.792969 2191.121094 387.804688 C 2179.625 380.816406 2170.839844 371.296875 2164.769531 359.25 C 2158.699219 347.203125 2155.660156 333.820312 2155.660156 319.105469 C 2155.660156 304.390625 2158.699219 291.007812 2164.769531 278.960938 C 2170.839844 266.914062 2179.625 257.394531 2191.121094 250.40625 C 2202.621094 243.414062 2216.1875 239.921875 2231.824219 239.921875 C 2242.3125 239.921875 2251.558594 241.714844 2259.558594 245.300781 C 2267.5625 248.886719 2273.679688 253.441406 2277.910156 258.957031 L 2277.910156 243.230469 L 2318.753906 243.230469 L 2318.753906 394.980469 L 2277.910156 394.980469 Z M 2268.253906 288.066406 C 2260.710938 280.0625 2250.589844 276.0625 2237.898438 276.0625 C 2225.019531 276.0625 2214.855469 280.0625 2207.402344 288.066406 C 2199.953125 296.066406 2196.226562 306.414062 2196.226562 319.105469 C 2196.226562 331.429688 2200.046875 341.636719 2207.679688 349.730469 C 2215.316406 357.824219 2225.386719 361.871094 2237.898438 361.871094 C 2250.773438 361.871094 2260.9375 358.054688 2268.390625 350.421875 C 2275.839844 342.785156 2279.566406 332.347656 2279.566406 319.105469 C 2279.566406 306.414062 2275.796875 296.066406 2268.253906 288.066406 Z M 2268.253906 288.066406 " fill-opacity="1" fill-rule="nonzero"/></svg>