<svg id="Layer_1" data-name="Layer 1" xmlns="http://www.w3.org/2000/svg" viewBox="0 0 230 50"><defs><style>.cls-1{fill:#fff;}</style></defs><path class="cls-1" d="M178,29.5A21.76,21.76,0,0,0,191.38,34a5.11,5.11,0,0,0-4-5A16.68,16.68,0,0,1,180.74,26a10.65,10.65,0,0,1-4.21-6.59.6.6,0,0,1,.68-.68c2,.32,5.69.7,14.36.7,4.33,0,5.07,1.45,6.47,4.95,0,0,0,.1.1.26a81.14,81.14,0,0,0-4.36,16.31c1.49.2,3,.34,4.49.43a62.89,62.89,0,0,1,2.29-9.83,63,63,0,0,1,2.3,9.91q2.26,0,4.5-.27A80.05,80.05,0,0,0,203,24.59c.06-.17.1-.26.1-.28,1.4-3.48,2.14-4.9,6.45-4.93,8.83,0,12.53-.39,14.48-.72a.52.52,0,0,1,.59.59,10.61,10.61,0,0,1-4.22,6.7A16.68,16.68,0,0,1,213.76,29a5.11,5.11,0,0,0-4,5,21.76,21.76,0,0,0,13.43-4.49c3.89-3.06,6-7.13,6-11.47v-.6a3.81,3.81,0,0,0-.08-.74c-.43-2-2.55-3.13-4.83-2.67-1.36.28-4.19.85-14.77.85-5,0-7.37,1.75-9,4.31-1.6-2.56-4-4.27-9-4.31-10.57,0-13.41-.57-14.77-.85A3.92,3.92,0,0,0,172,16.69a3.81,3.81,0,0,0-.08.74V18C171.92,22.37,174.06,26.44,178,29.5Z"/><path class="cls-1" d="M10.6,32.47c-2.35,0-4.63-.77-5.84-2.75V37.6H.8V14h4v2.49a6.42,6.42,0,0,1,5.8-2.79c6.34,0,9.29,3,9.29,9.39S16.9,32.47,10.6,32.47ZM4.76,23.11c0,4.23,1.48,6.18,5.84,6.18,4.12,0,5.33-1.95,5.33-6.18S14.72,17,10.56,17C6.24,17,4.76,19,4.76,23.11Z"/><path class="cls-1" d="M41,32.2H37V30a6.59,6.59,0,0,1-5.57,2.51c-7.38,0-9.56-4.09-9.56-9.39,0-5.1,2-9.39,9.52-9.39S41,18,41,23.08ZM25.76,23.08c0,4.36,1.37,6.14,5.7,6.14s5.63-1.78,5.63-6.14-1.34-6.14-5.67-6.14S25.76,18.72,25.76,23.08Z"/><path class="cls-1" d="M60.5,13.92C58.12,19,55.17,25.63,52.29,31.57c-1.18,2.71-2.62,5.7-5.74,6.44a21.07,21.07,0,0,1-4.9.47V35.32c2.15-.06,3.26.1,4.2-.43s1.67-2,2.68-3.86L41,13.92h4.13l5.56,12.62,5.74-12.62Z"/><path class="cls-1" d="M72.11,32.47c-2.35,0-4.63-.77-5.84-2.75V37.6H62.32V14h3.95v2.49c1.31-2.08,3.49-2.79,5.81-2.79,6.34,0,9.29,3,9.29,9.39S78.42,32.47,72.11,32.47Zm-5.84-9.36c0,4.23,1.48,6.18,5.84,6.18,4.12,0,5.33-1.95,5.33-6.18S76.23,17,72.08,17C67.75,17,66.27,19,66.27,23.11Z"/><path class="cls-1" d="M99.18,32.2v-10c-.07-4-1.85-5.13-5.6-5.13C90.19,17.08,88,18.35,88,22V32.2h-4V8.59h4v7.85c1.24-2,3.29-2.48,5.54-2.48,7.51,0,9.55,4.12,9.55,8.05V32.2Z"/><path class="cls-1" d="M114.91,32.47c-6.34,0-9.56-3-9.56-9.39s3.22-9.39,9.56-9.39,9.52,3,9.52,9.39S121.21,32.47,114.91,32.47Zm0-15.66c-4.4,0-5.67,2-5.67,6.27s1.27,6.24,5.67,6.24,5.63-2,5.63-6.24S119.27,16.81,114.91,16.81Z"/><path class="cls-1" d="M142.17,32.2c0-2.41,0-5.5,0-7.88,0-4.39-.5-7.24-5.6-7.24-4.3,0-5.5,2.24-5.5,6.27V32.2h-4V13.92h4v2.52a6.15,6.15,0,0,1,5.5-2.48c5.26,0,9.49,2.21,9.49,8V32.2Z"/><path class="cls-1" d="M163.33,26.67l0,0c-.31,1.88-2.15,2.62-4.87,2.62-3.75,0-5.33-1.51-5.63-4.63h15c.4-7-1.92-11-9.39-11s-9.53,4.36-9.53,9.42,2,9.36,9.49,9.36c4.87,0,7.72-1.46,9-5.8Zm-4.92-9.79c3.86,0,5.33,1.64,5.5,4.83H152.77C153,18.49,154.52,16.88,158.41,16.88Z"/></svg>